<?xml version="1.0" encoding="utf-8"?>
<!-- Generator: Adobe Illustrator 23.1.0, SVG Export Plug-In . SVG Version: 6.00 Build 0)  -->
<svg version="1.1" id="Layer_1" xmlns="http://www.w3.org/2000/svg" xmlns:xlink="http://www.w3.org/1999/xlink" x="0px" y="0px"
	 viewBox="0 0 930.37 966.04" style="enable-background:new 0 0 930.37 966.04;" xml:space="preserve">
<style type="text/css">
	.st0{clip-path:url(#SVGID_2_);fill:#000000;}
</style>
<g>
	<defs>
		<rect id="SVGID_1_" x="45.21" y="35.1" width="791.76" height="890.81"/>
	</defs>
	<clipPath id="SVGID_2_">
		<use xlink:href="#SVGID_1_"  style="overflow:visible;"/>
	</clipPath>
	<path class="st0" d="M158.92,699.67c4.84,7.37,9.86,14.57,15.08,21.49c3,3.96,6.12,7.8,9.24,11.63l190.84-538.54l101.5,285.81
		h27.71l101.22-284.24l207.55,586.19c8.02-10.04,17.75-21.61,24.92-32.36L604.57,96.42L489.54,419.09L374.39,95.57
		c-0.27,0.08-0.55,0.14-0.82,0.22L158.92,699.67z"/>
	<path class="st0" d="M489.54,547.96l43.61,122.99h-87.22L489.54,547.96z M373.83,861.36l1.71,0.55c0.65,0.18,1.33,0.35,2,0.55
		l56.04-157.94h111.91l55.97,157.9l0.45-0.14c10.47-3.16,20.73-6.88,30.94-10.94L503.29,486.91H475.6L345.84,851.5
		c4.41,1.75,8.86,3.49,13.45,5.08C364.12,858.28,368.96,859.87,373.83,861.36"/>
	<path class="st0" d="M487.75,884.92c-221.55,0-401.8-181.41-401.8-404.39c0-223,180.25-404.41,401.8-404.41
		c122.58,0,232.43,55.59,306.2,142.97l21.53-37.85C734.53,91.48,617.68,35.12,487.75,35.12C243.35,35.12,45.2,234.53,45.2,480.52
		c0,245.98,198.14,445.39,442.55,445.39c125.91,0,239.45-53.93,320.01-138.88l-15.43-43.2C718.59,830.1,609.44,884.92,487.75,884.92
		"/>
</g>
</svg>
